<svg width="17" height="17" viewBox="0 0 17 17" fill="none" xmlns="http://www.w3.org/2000/svg">
    <path d="M5.97905 14.0917C5.85238 14.0917 5.72571 14.0451 5.62571 13.9451C5.43238 13.7517 5.43238 13.4317 5.62571 13.2384L9.97238 8.89172C10.2924 8.57172 10.2924 8.05172 9.97238 7.73172L5.62571 3.38505C5.43238 3.19172 5.43238 2.87172 5.62571 2.67839C5.81905 2.48505 6.13905 2.48505 6.33238 2.67839L10.679 7.02505C11.019 7.36505 11.2124 7.82505 11.2124 8.31172C11.2124 8.79839 11.0257 9.25839 10.679 9.59839L6.33238 13.9451C6.23238 14.0384 6.10571 14.0917 5.97905 14.0917Z"
          fill="#111215"/>
</svg>
