<svg width="20" height="20" viewBox="0 0 20 20" fill="none" xmlns="http://www.w3.org/2000/svg">
    <g id="vuesax/outline/menu">
        <g id="menu">
            <path id="Vector"
                  d="M17.5 5.20801H2.5C2.15833 5.20801 1.875 4.92467 1.875 4.58301C1.875 4.24134 2.15833 3.95801 2.5 3.95801H17.5C17.8417 3.95801 18.125 4.24134 18.125 4.58301C18.125 4.92467 17.8417 5.20801 17.5 5.20801Z"
                  fill="white"/>
            <path id="Vector_2"
                  d="M17.5 10.625H2.5C2.15833 10.625 1.875 10.3417 1.875 10C1.875 9.65833 2.15833 9.375 2.5 9.375H17.5C17.8417 9.375 18.125 9.65833 18.125 10C18.125 10.3417 17.8417 10.625 17.5 10.625Z"
                  fill="white"/>
            <path id="Vector_3"
                  d="M17.5 16.042H2.5C2.15833 16.042 1.875 15.7587 1.875 15.417C1.875 15.0753 2.15833 14.792 2.5 14.792H17.5C17.8417 14.792 18.125 15.0753 18.125 15.417C18.125 15.7587 17.8417 16.042 17.5 16.042Z"
                  fill="white"/>
        </g>
    </g>
</svg>
