<svg width="188" height="71" viewBox="0 0 188 71" fill="none" xmlns="http://www.w3.org/2000/svg">
    <path fill-rule="evenodd" clip-rule="evenodd"
          d="M31.4864 0.311707C25.9066 0.311707 20.6424 2.89932 17.2343 7.31724L4.11999 24.3172C-0.877234 30.7951 -0.877239 39.8283 4.11999 46.3062L17.2343 63.3062C20.6424 67.7241 25.9066 70.3117 31.4864 70.3117H169.639C179.58 70.3117 187.639 62.2528 187.639 52.3117L187.639 18.3117C187.639 8.37058 179.58 0.311707 169.639 0.311707L31.4864 0.311707ZM13.6377 39.3117C15.8468 39.3117 17.6377 37.5208 17.6377 35.3117C17.6377 33.1026 15.8468 31.3117 13.6377 31.3117C11.4286 31.3117 9.6377 33.1026 9.6377 35.3117C9.6377 37.5208 11.4286 39.3117 13.6377 39.3117Z"
          fill="#C8FF52"/>
</svg>
