<svg width="27" height="31" viewBox="0 0 27 31" fill="none" xmlns="http://www.w3.org/2000/svg">
    <path d="M0.197707 4.02934C0.197707 1.8202 1.98857 0.0293398 4.19771 0.0293398L22.1977 0.0293397C24.4068 0.0293397 26.1977 1.8202 26.1977 4.02934L26.1977 25.6802C26.1977 28.6237 23.1258 30.559 20.4708 29.2883L14.9246 26.6337C13.8327 26.111 12.5628 26.111 11.4708 26.6337L5.92462 29.2883C3.2696 30.559 0.197707 28.6237 0.197707 25.6802L0.197707 4.02934Z"
          fill="#F7C842"/>
    <path d="M13.8918 12.1269L13.6678 13.4989H12.1558L11.9458 14.7589H13.4718L13.2478 16.1169H11.7078L11.3438 18.3289H9.91579L10.2798 16.1169H8.85179L8.48779 18.3289H7.07379L7.43779 16.1169H5.91179L6.13579 14.7589H7.67579L7.88579 13.4989H6.33179L6.55579 12.1269H8.10979L8.47379 9.92893H9.88779L9.52379 12.1269H10.9518L11.3158 9.92893H12.7438L12.3798 12.1269H13.8918ZM9.08979 14.7589H10.5178L10.7278 13.4989H9.29979L9.08979 14.7589ZM14.1253 11.0769V9.22893H20.4533V10.8669L17.1353 19.0289H15.0913L18.3113 11.0769H14.1253Z"
          fill="#111215"/>
</svg>
