<svg width="12" height="12" viewBox="0 0 12 12" fill="none" xmlns="http://www.w3.org/2000/svg">
    <g id="SmallFireIcon">
        <path id="Vector"
              d="M9.84401 5.18836C9.61237 4.66092 9.27563 4.18751 8.85486 3.79776L8.50765 3.47547C8.49586 3.46482 8.48167 3.45727 8.46632 3.45347C8.45098 3.44967 8.43494 3.44974 8.41963 3.45367C8.40431 3.45761 8.39019 3.46528 8.37849 3.47603C8.36679 3.48677 8.35788 3.50026 8.35254 3.5153L8.19742 3.96555C8.10077 4.24802 7.92299 4.53652 7.67123 4.82019C7.65452 4.83829 7.63543 4.84312 7.62231 4.84433C7.60918 4.84554 7.5889 4.84312 7.571 4.82622C7.5543 4.81174 7.54595 4.79001 7.54714 4.76828C7.59129 4.0416 7.37651 3.22197 6.9064 2.32992C6.51742 1.58875 5.97691 1.01055 5.30157 0.607373L4.80879 0.314045C4.74436 0.275418 4.66203 0.326116 4.66561 0.402164L4.69186 0.981577C4.70976 1.37751 4.66441 1.72757 4.55703 2.01848C4.42578 2.37458 4.23726 2.70533 3.99623 3.00228C3.8285 3.20865 3.63839 3.39531 3.42947 3.55876C2.92632 3.95006 2.51718 4.45146 2.23271 5.0254C1.94894 5.60434 1.80113 6.24175 1.80078 6.88797C1.80078 7.45772 1.91175 8.00937 2.13129 8.52964C2.34328 9.03055 2.6492 9.48515 3.03214 9.86832C3.41873 10.2546 3.86737 10.5588 4.36731 10.77C4.88515 10.9897 5.43402 11.1008 6.00078 11.1008C6.56754 11.1008 7.1164 10.9897 7.63424 10.7712C8.13295 10.5612 8.58645 10.255 8.96941 9.86953C9.356 9.48325 9.65907 9.03179 9.87026 8.53084C10.0895 8.012 10.2019 7.45342 10.2008 6.88917C10.2008 6.3001 10.0815 5.72793 9.84401 5.18836Z"
              fill="#F14747"/>
    </g>
</svg>
