<svg width="27" height="31" viewBox="0 0 27 31" fill="none" xmlns="http://www.w3.org/2000/svg">
    <g clip-path="url(#clip0_1_9)">
        <path d="M0.407235 13.0285C0.407235 5.84879 6.22753 0.0284892 13.4072 0.0284892C20.5869 0.0284892 26.4072 5.84879 26.4072 13.0285L26.4072 26.0285C26.4072 28.2376 24.6164 30.0285 22.4072 30.0285L4.40723 30.0285C2.1981 30.0285 0.407235 28.2376 0.407235 26.0285L0.407235 13.0285Z"
              fill="#F14747"/>
        <path d="M11.0782 5.78376C11.8 5.38155 14.8999 4.75959 16.9758 4.37443C17.6229 4.25438 18.0436 5.00619 17.6025 5.49455C16.1992 7.04809 14.0724 9.33307 13.3525 9.73422C12.2438 10.3521 10.8357 9.96872 10.2077 8.87785C9.57969 7.78691 9.96925 6.40168 11.0782 5.78376Z"
              fill="white"/>
        <path d="M11.6088 14.3298L10.3988 15.8698C10.8522 16.0298 11.2122 16.2832 11.4788 16.6298C11.7522 16.9698 11.8888 17.3698 11.8888 17.8298C11.8888 18.5632 11.6422 19.1365 11.1488 19.5498C10.6555 19.9632 10.0522 20.1698 9.33882 20.1698C8.77215 20.1698 8.27215 20.0432 7.83882 19.7898C7.40549 19.5298 7.08882 19.1565 6.88882 18.6698L8.26882 17.8698C8.44215 18.3632 8.79882 18.6098 9.33882 18.6098C9.73215 18.6365 10.0122 18.5132 10.1788 18.2398C10.3455 17.9665 10.3455 17.6932 10.1788 17.4198C10.0122 17.1465 9.73215 17.0232 9.33882 17.0498H9.00882L8.39882 16.1398L9.66882 14.5298H7.10882V13.0298H11.6088V14.3298ZM14.3416 19.2198C14.3416 19.4798 14.2482 19.7032 14.0616 19.8898C13.8749 20.0765 13.6516 20.1698 13.3916 20.1698C13.1316 20.1698 12.9082 20.0765 12.7216 19.8898C12.5349 19.7032 12.4416 19.4798 12.4416 19.2198C12.4416 18.9598 12.5349 18.7365 12.7216 18.5498C12.9082 18.3632 13.1316 18.2698 13.3916 18.2698C13.6516 18.2698 13.8749 18.3632 14.0616 18.5498C14.2482 18.7365 14.3416 18.9598 14.3416 19.2198ZM19.7743 20.0298H15.0143V18.8698L17.3643 16.4298C17.8376 15.9365 18.0743 15.5232 18.0743 15.1898C18.0743 14.9698 18.0076 14.7932 17.8743 14.6598C17.741 14.5198 17.5576 14.4498 17.3243 14.4498C16.8576 14.4498 16.5143 14.7032 16.2943 15.2098L14.9443 14.4198C15.1576 13.9332 15.4743 13.5565 15.8943 13.2898C16.3143 13.0232 16.7843 12.8898 17.3043 12.8898C17.9643 12.8898 18.521 13.0932 18.9743 13.4998C19.441 13.8998 19.6743 14.4398 19.6743 15.1198C19.6743 15.8598 19.311 16.5932 18.5843 17.3198L17.4243 18.4898H19.7743V20.0298ZM9.24023 26.1418C8.63223 26.1418 8.12556 25.9392 7.72023 25.5338C7.32023 25.1285 7.12023 24.6272 7.12023 24.0298C7.12023 23.4325 7.32023 22.9312 7.72023 22.5258C8.12556 22.1205 8.63223 21.9178 9.24023 21.9178C9.61889 21.9178 9.97089 22.0112 10.2962 22.1978C10.6216 22.3845 10.8722 22.6325 11.0482 22.9418L10.0002 23.5498C9.85623 23.2512 9.59756 23.1018 9.22423 23.1018C8.96289 23.1018 8.74689 23.1898 8.57623 23.3658C8.40556 23.5365 8.32023 23.7578 8.32023 24.0298C8.32023 24.3018 8.40556 24.5258 8.57623 24.7018C8.74689 24.8725 8.96289 24.9578 9.22423 24.9578C9.60289 24.9578 9.86156 24.8085 10.0002 24.5098L11.0482 25.1098C10.8722 25.4298 10.6216 25.6832 10.2962 25.8698C9.97623 26.0512 9.62423 26.1418 9.24023 26.1418ZM15.365 24.5098H12.525C12.6584 24.8832 12.9784 25.0698 13.485 25.0698C13.8104 25.0698 14.0664 24.9685 14.253 24.7658L15.213 25.3178C14.8237 25.8672 14.2424 26.1418 13.469 26.1418C12.8024 26.1418 12.2637 25.9418 11.853 25.5418C11.453 25.1418 11.253 24.6378 11.253 24.0298C11.253 23.4325 11.4504 22.9312 11.845 22.5258C12.245 22.1205 12.757 21.9178 13.381 21.9178C13.9624 21.9178 14.445 22.1205 14.829 22.5258C15.2184 22.9205 15.413 23.4218 15.413 24.0298C15.413 24.2005 15.397 24.3605 15.365 24.5098ZM12.501 23.6138H14.221C14.1037 23.1925 13.821 22.9818 13.373 22.9818C12.909 22.9818 12.6184 23.1925 12.501 23.6138ZM18.4377 24.0298L19.9337 26.0298H18.5737L17.2937 24.2618V26.0298H16.0937V22.0298H17.2937V23.7818L18.4937 22.0298H19.8937L18.4377 24.0298Z"
              fill="white"/>
    </g>
    <defs>
        <clipPath id="clip0_1_9">
            <rect width="26" height="30" fill="white" transform="translate(0.407227 0.0295425)"/>
        </clipPath>
    </defs>
</svg>
